<svg xmlns="http://www.w3.org/2000/svg" width="210" height="78" viewBox="0 0 210 78" fill="none">
    <g clip-path="url(#clip0_1344_679)">
        <path d="M84.0811 46.3688H88.8348C91.2486 46.3688 92.5633 47.6994 92.5633 49.0329C92.5633 49.9808 92.1379 50.513 91.6858 50.8239C91.4377 51.0003 91.1452 51.1349 90.8084 51.2246V51.2844C91.2338 51.3741 91.5972 51.5206 91.934 51.7269C92.519 52.0827 93.0744 52.7345 93.0744 53.8438C93.0744 55.3986 91.7597 56.7292 89.1273 56.7292H84.0811V46.3688ZM88.2498 50.3635C88.9086 50.3635 89.2011 50.0824 89.2011 49.622C89.2011 49.1615 88.9086 48.8804 88.2498 48.8804H87.3723V50.3605H88.2498V50.3635ZM88.69 54.2116C89.3489 54.2116 89.7123 53.8408 89.7123 53.3236C89.7123 52.8063 89.3459 52.4355 88.69 52.4355H87.3723V54.2116H88.69Z" fill="#004F9F"/>
        <path d="M97.3909 46.3688H101.119L104.848 56.7292H101.338L100.753 54.7319H97.7543L97.1693 56.7292H93.6594L97.3879 46.3688H97.3909ZM100.097 52.4355L99.2936 49.5502H99.2197L98.4161 52.4355H100.097Z" fill="#004F9F"/>
        <path d="M106.384 46.3688H109.676V53.6196H113.918V56.7292H106.387V46.3688H106.384Z" fill="#004F9F"/>
        <path d="M115.596 46.3688H118.887V53.6196H123.13V56.7292H115.599V46.3688H115.596Z" fill="#004F9F"/>
        <path d="M129.71 46.0728C133.057 46.0728 135.486 48.5157 135.486 51.5475C135.486 54.5794 133.057 57.0222 129.71 57.0222C126.362 57.0222 123.934 54.5794 123.934 51.5475C123.934 48.5157 126.362 46.0728 129.71 46.0728ZM129.71 54.0651C131.113 54.0651 132.197 52.9708 132.197 51.5505C132.197 50.1303 131.116 49.0329 129.71 49.0329C128.303 49.0329 127.222 50.1273 127.222 51.5505C127.222 52.9738 128.303 54.0651 129.71 54.0651Z" fill="#004F9F"/>
        <path d="M136.948 46.3688H139.799L143.601 51.3262V46.3688H146.893V56.7292H144.042L140.239 51.7718V56.7292H136.948V46.3688Z" fill="#004F9F"/>
        <path d="M150.329 53.2488C150.503 53.4402 150.695 53.6196 150.914 53.7661C151.28 54.0471 151.791 54.2833 152.376 54.2833C153.121 54.2833 153.399 53.9873 153.399 53.6166C153.399 52.4475 148.793 52.6538 148.793 49.3259C148.793 47.6097 150.314 46.0698 152.887 46.0698C154.217 46.0698 155.139 46.4406 155.768 46.8113C156.134 47.0326 156.442 47.2688 156.69 47.5529L154.79 49.5502C154.687 49.4156 154.557 49.2841 154.409 49.1794C154.131 49.003 153.765 48.8087 153.254 48.8087C152.669 48.8087 152.376 49.0299 152.376 49.3259C152.376 50.495 156.982 50.2887 156.982 53.6166C156.982 55.3926 155.372 57.0222 152.743 57.0222C151.339 57.0222 150.285 56.5916 149.54 56.1341C149.115 55.883 148.736 55.587 148.429 55.2461L150.329 53.2488Z" fill="#004F9F"/>
        <path d="M93.5146 68.4051C93.2074 68.7759 92.8263 69.1167 92.3742 69.4127C91.6149 69.93 90.4863 70.4054 88.9825 70.4054C85.6322 70.4054 83.2065 67.9626 83.2065 64.9307C83.2065 61.8989 85.6351 59.4561 88.9825 59.4561C90.4893 59.4561 91.5854 59.9434 92.3299 60.4637C92.7701 60.7597 93.1335 61.0856 93.4408 61.4564L91.4672 63.6032C91.2929 63.3819 91.0861 63.1876 90.8379 63.0112C90.4272 62.7151 89.8157 62.4191 89.0534 62.4191C87.591 62.4191 86.4949 63.5135 86.4949 64.9367C86.4949 66.3599 87.591 67.4513 89.0534 67.4513C89.8127 67.4513 90.442 67.1553 90.8675 66.8593C91.1156 66.6829 91.349 66.4885 91.5411 66.2673L93.5146 68.4141V68.4051Z" fill="#004F9F"/>
        <path d="M94.4658 59.7491H97.7571V63.376H100.83V59.7491H104.121V70.1094H100.83V66.336H97.7571V70.1094H94.4658V59.7491Z" fill="#004F9F"/>
        <path d="M108.943 59.7491H112.671L116.4 70.1094H112.89L112.305 68.1121H109.306L108.721 70.1094H105.211L108.94 59.7491H108.943ZM111.649 65.8158L110.845 62.9304H110.771L109.968 65.8158H111.649Z" fill="#004F9F"/>
        <path d="M118.743 62.7809H116.036V59.7461H124.737V62.7809H122.031V70.1064H118.74V62.7809H118.743Z" fill="#004F9F"/>
        <path d="M126.2 59.7491H134.316V62.4879H129.491V63.7467H133.149V66.1148H129.491V67.3736H134.463V70.1124H126.2V59.7521V59.7491Z" fill="#004F9F"/>
        <path d="M138.851 59.7491H142.579L146.308 70.1094H142.798L142.213 68.1121H139.214L138.629 70.1094H135.119L138.848 59.7491H138.851ZM141.557 65.8158L140.753 62.9304H140.679L139.876 65.8158H141.557Z" fill="#004F9F"/>
        <path d="M146.529 59.7491H149.821V65.744C149.821 66.647 150.538 67.3736 151.357 67.3736C152.175 67.3736 152.893 66.647 152.893 65.744V59.7491H156.184V65.744C156.184 68.4081 154.226 70.4054 151.36 70.4054C148.494 70.4054 146.535 68.4081 146.535 65.744V59.7491H146.529Z" fill="#004F9F"/>
        <path d="M157.863 63.6689H162.835V66.333H157.863V63.6689Z" fill="#004F9F"/>
        <path d="M164.661 59.7491H168.756C171.973 59.7491 174.313 62.1321 174.313 64.9278C174.313 67.7234 171.973 70.1064 168.756 70.1064H164.661V59.7461V59.7491ZM168.682 67.2958C170.085 67.2958 171.022 66.348 171.022 64.9278C171.022 63.5075 170.085 62.5597 168.682 62.5597H167.949V67.2958H168.682Z" fill="#004F9F"/>
        <path d="M183.162 59.4531C186.509 59.4531 188.938 61.8959 188.938 64.9277C188.938 67.9596 186.509 70.4024 183.162 70.4024C179.814 70.4024 177.386 67.9596 177.386 64.9277C177.386 61.8959 179.814 59.4531 183.162 59.4531ZM183.162 67.4453C184.565 67.4453 185.646 66.351 185.646 64.9307C185.646 63.5105 184.565 62.4132 183.162 62.4132C181.758 62.4132 180.674 63.5075 180.674 64.9307C180.674 66.354 181.755 67.4453 183.162 67.4453Z" fill="#004F9F"/>
        <path d="M190.108 59.7491H198.224V62.4879H193.399V63.7467H197.057V66.1148H193.399V67.3736H198.371V70.1124H190.108V59.7521V59.7491Z" fill="#004F9F"/>
        <path d="M202.54 64.7065L199.689 59.7491H203.273L204.661 62.7839H204.735L206.124 59.7491H209.708L206.856 64.7065L210 70.1094H206.416L204.735 66.6321H204.661L202.98 70.1094H199.396L202.54 64.7065Z" fill="#004F9F"/>
        <path d="M177.572 59.7491L176.399 63.5673L174.422 63.1038L175.084 59.1451L177.572 59.7491Z" fill="#004F9F"/>
        <path d="M51.3249 23.5671C51.3249 26.3359 50.7547 28.9671 49.759 31.4129C48.7988 31.2753 47.815 31.2036 46.8105 31.2036C36.3694 31.2036 27.9049 38.9776 27.9049 48.5635C27.9049 51.2814 28.6612 53.778 29.8932 56.0504H21.4287C21.4287 56.0504 10.8429 44.0247 7.04048 39.7819C2.984 35.252 0 29.8461 0 23.5641C0 10.5487 11.4899 0 25.6624 0C39.835 0 51.3249 10.5487 51.3249 23.5641V23.5671Z" fill="#004F9F"/>
        <path d="M49.7589 31.4129C49.6732 31.6282 49.5846 31.8405 49.493 32.0498C49.4162 32.2292 49.3335 32.4056 49.2507 32.582C48.0099 35.2311 46.2845 37.65 44.2843 39.7849L29.8961 56.0534C28.6641 53.781 27.9077 51.2844 27.9077 48.5665C27.9077 38.9806 36.3722 31.2066 46.8133 31.2066C47.8178 31.2066 48.8016 31.2783 49.7618 31.4159L49.7589 31.4129Z" fill="#76B82A"/>
        <path d="M64.9154 53.3983C64.7559 53.8767 64.5727 54.3491 64.3688 54.8126C64.3127 54.9441 64.2507 55.0757 64.1886 55.2043C63.2727 57.1567 62.0023 58.9358 60.531 60.5115L49.9334 72.4954H43.6965C43.6965 72.4954 35.8967 63.639 33.0959 60.5115C31.8609 59.1331 30.7619 57.6501 29.8992 56.0534L44.2874 39.7849C46.2876 37.65 48.013 35.2311 49.2538 32.582C49.3366 32.4056 49.4193 32.2291 49.4961 32.0497C49.5877 31.8404 49.6793 31.6282 49.762 31.4129C52.1758 31.7597 54.436 32.5252 56.4568 33.6285C55.6177 35.1115 55.1421 36.7949 55.1421 38.5799C55.1421 41.4443 56.5041 43.9111 58.3536 45.9771C60.0849 47.9117 64.9154 53.3983 64.9154 53.3983Z" fill="#FFDD00"/>
        <path d="M65.7161 48.5635C65.7161 50.2529 65.4266 51.8674 64.9125 53.3983C64.9125 53.3983 60.082 47.9117 58.3507 45.9772C56.4982 43.9111 55.1392 41.4443 55.1392 38.5799C55.1392 36.7949 55.6119 35.1115 56.4539 33.6285C62.0024 36.6514 65.7161 42.2098 65.7161 48.5605V48.5635Z" fill="#F39200"/>
        <path d="M78.5532 38.5799C78.5532 39.9523 78.243 41.25 77.7171 42.449C77.6787 42.5297 77.6462 42.6134 77.6048 42.6911C77.0405 43.8991 76.2517 45.0054 75.3388 45.9772L68.774 53.3983H64.9125C65.4266 51.8674 65.7161 50.2528 65.7161 48.5635C65.7161 42.2098 61.9994 36.6543 56.4539 33.6315C58.4038 30.187 62.3244 27.8309 66.8447 27.8309C73.312 27.8309 78.5532 32.6448 78.5532 38.5829V38.5799Z" fill="#E30613"/>
        <path d="M29.8991 61.1245H21.4316V63.5972H29.8991V61.1245Z" fill="#004F9F"/>
        <path d="M49.9334 76.1851H43.6936V78H49.9334V76.1851Z" fill="#FFDD00"/>
        <path d="M68.7768 55.584H64.9153V56.7112H68.7768V55.584Z" fill="#E30613"/>
    </g>
    <defs>
        <clipPath id="clip0_1344_679">
            <rect width="210" height="78" fill="white"/>
        </clipPath>
    </defs>
</svg>
