<svg width="61" height="60" viewBox="0 0 61 60" fill="none" xmlns="http://www.w3.org/2000/svg">
<g clip-path="url(#clip0_2016_59)">
<path d="M30.5028 -0.000488281C22.3552 -0.000488281 21.3327 0.0351377 18.1327 0.180764C14.9389 0.327016 12.7589 0.832646 10.8514 1.57453C8.87821 2.34079 7.20444 3.3658 5.53693 5.03394C3.86816 6.70146 2.84315 8.37523 2.07439 10.3477C1.33063 12.2559 0.824378 14.4365 0.680627 17.6291C0.5375 20.8291 0.5 21.8522 0.5 29.9998C0.5 38.1474 0.536251 39.1668 0.681252 42.3668C0.828129 45.5606 1.33376 47.7407 2.07502 49.6482C2.8419 51.6213 3.86691 53.2951 5.53505 54.9626C7.20194 56.6314 8.87571 57.6589 10.8476 58.4251C12.7564 59.167 14.937 59.6727 18.1302 59.8189C21.3302 59.9645 22.3521 60.0002 30.4991 60.0002C38.6473 60.0002 39.6667 59.9645 42.8667 59.8189C46.0605 59.6727 48.243 59.167 50.1518 58.4251C52.1243 57.6589 53.7956 56.6314 55.4624 54.9626C57.1312 53.2951 58.1562 51.6213 58.925 49.6488C59.6625 47.7407 60.1687 45.56 60.3187 42.3675C60.4625 39.1674 60.5 38.1474 60.5 29.9998C60.5 21.8522 60.4625 20.8297 60.3187 17.6297C60.1687 14.4359 59.6625 12.2559 58.925 10.3484C58.1562 8.37523 57.1312 6.70146 55.4624 5.03394C53.7937 3.36517 52.1249 2.34016 50.1499 1.57453C48.2374 0.832646 46.0561 0.327016 42.8623 0.180764C39.6623 0.0351377 38.6435 -0.000488281 30.4934 -0.000488281H30.5028ZM27.8115 5.40582C28.6103 5.40457 29.5016 5.40582 30.5028 5.40582C38.5129 5.40582 39.4623 5.43457 42.6254 5.57832C45.5505 5.71207 47.138 6.20083 48.1955 6.61146C49.5955 7.15521 50.5936 7.80522 51.643 8.85523C52.693 9.90524 53.343 10.9053 53.8881 12.3053C54.2987 13.3615 54.7881 14.949 54.9212 17.8741C55.0649 21.0366 55.0962 21.9866 55.0962 29.993C55.0962 37.9993 55.0649 38.9493 54.9212 42.1118C54.7874 45.0369 54.2987 46.6244 53.8881 47.6807C53.3443 49.0807 52.693 50.0776 51.643 51.1269C50.593 52.177 49.5961 52.827 48.1955 53.3707C47.1392 53.7832 45.5505 54.2707 42.6254 54.4045C39.4629 54.5482 38.5129 54.5795 30.5028 54.5795C22.4921 54.5795 21.5427 54.5482 18.3802 54.4045C15.4552 54.2695 13.8676 53.7807 12.8095 53.3701C11.4095 52.8263 10.4095 52.1763 9.35947 51.1263C8.30946 50.0763 7.65945 49.0788 7.11444 47.6782C6.70381 46.6219 6.21443 45.0344 6.08131 42.1093C5.93756 38.9468 5.90881 37.9968 5.90881 29.9855C5.90881 21.9741 5.93756 21.0291 6.08131 17.8666C6.21506 14.9416 6.70381 13.354 7.11444 12.2965C7.6582 10.8965 8.30946 9.89649 9.35947 8.84648C10.4095 7.79647 11.4095 7.14646 12.8095 6.60146C13.867 6.18895 15.4552 5.70145 18.3802 5.56707C21.1477 5.44207 22.2202 5.40457 27.8115 5.39832V5.40582ZM46.5167 10.3871C44.5292 10.3871 42.9167 11.9978 42.9167 13.9859C42.9167 15.9734 44.5292 17.586 46.5167 17.586C48.5042 17.586 50.1168 15.9734 50.1168 13.9859C50.1168 11.9984 48.5042 10.3859 46.5167 10.3859V10.3871ZM30.5028 14.5934C21.9946 14.5934 15.0964 21.4916 15.0964 29.9998C15.0964 38.5081 21.9946 45.4031 30.5028 45.4031C39.011 45.4031 45.9067 38.5081 45.9067 29.9998C45.9067 21.4916 39.011 14.5934 30.5028 14.5934ZM30.5028 19.9997C36.0254 19.9997 40.5029 24.4767 40.5029 29.9998C40.5029 35.5224 36.0254 39.9999 30.5028 39.9999C24.9796 39.9999 20.5027 35.5224 20.5027 29.9998C20.5027 24.4767 24.9796 19.9997 30.5028 19.9997Z" fill="#F6F6F6"/>
</g>
<defs>
<clipPath id="clip0_2016_59">
<rect width="60.0018" height="60" fill="white" transform="translate(0.5)"/>
</clipPath>
</defs>
</svg>
