<svg width="61" height="60" viewBox="0 0 61 60" fill="none" xmlns="http://www.w3.org/2000/svg">
<path d="M56.2143 0C58.4911 0 60.5 2.00893 60.5 4.41964V55.7143C60.5 58.125 58.4911 60 56.2143 60H4.65179C2.375 60 0.5 58.125 0.5 55.7143V4.41964C0.5 2.00893 2.375 0 4.65179 0H56.2143ZM18.5804 51.4286V22.9018H9.74107V51.4286H18.5804ZM14.1607 18.8839C16.9732 18.8839 19.25 16.6071 19.25 13.7946C19.25 10.9821 16.9732 8.57143 14.1607 8.57143C11.2143 8.57143 8.9375 10.9821 8.9375 13.7946C8.9375 16.6071 11.2143 18.8839 14.1607 18.8839ZM51.9286 51.4286V35.7589C51.9286 28.125 50.1875 22.0982 41.2143 22.0982C36.9286 22.0982 33.9821 24.5089 32.7768 26.7857H32.6429V22.9018H24.2054V51.4286H33.0446V37.3661C33.0446 33.6161 33.7143 30 38.4018 30C42.9554 30 42.9554 34.2857 42.9554 37.5V51.4286H51.9286Z" fill="#F6F6F6"/>
</svg>
