<svg width="60" height="60" viewBox="0 0 60 60" fill="none" xmlns="http://www.w3.org/2000/svg">
<path d="M58.6818 14.8173C59.998 19.4242 59.998 29.2962 59.998 29.2962C59.998 29.2962 59.998 39.0586 58.6818 43.7752C58.0236 46.4078 55.9395 48.3822 53.4167 49.0403C48.7001 50.2469 30.0529 50.2469 30.0529 50.2469C30.0529 50.2469 11.296 50.2469 6.5794 49.0403C4.05655 48.3822 1.97245 46.4078 1.31432 43.7752C-0.00195312 39.0586 -0.00195312 29.2962 -0.00195312 29.2962C-0.00195312 29.2962 -0.00195312 19.4242 1.31432 14.8173C1.97245 12.1847 4.05655 10.1006 6.5794 9.44249C11.296 8.12622 30.0529 8.12622 30.0529 8.12622C30.0529 8.12622 48.7001 8.12622 53.4167 9.44249C55.9395 10.1006 58.0236 12.1847 58.6818 14.8173ZM23.9103 38.1811L39.4862 29.2962L23.9103 20.4114V38.1811Z" fill="#F6F6F6"/>
</svg>
