<svg width="60" height="60" viewBox="0 0 60 60" fill="none" xmlns="http://www.w3.org/2000/svg">
<g clip-path="url(#clip0_2016_57)">
<path d="M60 30.1102C60 13.4809 46.5684 0 30 0C13.4316 0 0 13.4809 0 30.1102C0 44.2307 9.6864 56.0797 22.7532 59.334V39.3119H16.5672V30.1102H22.7532V26.1453C22.7532 15.897 27.3744 11.1468 37.3992 11.1468C39.3 11.1468 42.5796 11.5214 43.9212 11.8947V20.2353C43.2132 20.1606 41.9832 20.1233 40.4556 20.1233C35.5368 20.1233 33.636 21.9937 33.636 26.8559V30.1102H43.4352L41.7516 39.3119H33.636V60C48.4884 58.1994 60 45.5049 60 30.1102Z" fill="#F6F6F6"/>
</g>
<defs>
<clipPath id="clip0_2016_57">
<rect width="60" height="60" fill="white"/>
</clipPath>
</defs>
</svg>
